<?xml version="1.0" standalone="no"?>
<!DOCTYPE svg PUBLIC "-//W3C//DTD SVG 20010904//EN"
 "http://www.w3.org/TR/2001/REC-SVG-20010904/DTD/svg10.dtd">
<svg version="1.0" xmlns="http://www.w3.org/2000/svg"
 width="512.000000pt" height="512.000000pt" viewBox="0 0 512.000000 512.000000"
 preserveAspectRatio="xMidYMid meet">

<g transform="translate(0.000000,512.000000) scale(0.100000,-0.100000)"
fill="#000000" stroke="none">
<path d="M3825 4790 c-363 -92 -1217 -307 -1897 -479 l-1237 -311 -121 0
c-115 0 -122 -1 -145 -25 l-25 -24 0 -671 0 -671 25 -24 c13 -14 31 -25 40
-25 12 0 15 -15 15 -80 l0 -80 -40 0 -40 0 0 -1016 c0 -769 3 -1027 12 -1058
16 -55 99 -138 154 -154 32 -9 491 -12 1996 -12 2205 0 2013 -7 2091 80 24 26
49 66 55 88 9 30 12 403 12 1511 l0 1472 -25 24 -24 25 -1598 0 c-930 0 -1593
4 -1587 9 5 5 675 176 1489 381 1898 477 1736 435 1757 460 10 12 18 31 18 41
0 11 -36 164 -80 342 -69 277 -84 325 -106 345 -14 12 -37 21 -52 21 -15 -1
-324 -77 -687 -169z m682 -211 c28 -110 48 -199 43 -197 -5 2 -97 75 -206 163
l-197 159 144 37 c79 21 149 38 154 38 6 1 34 -89 62 -200z m-946 -266 c149
-121 225 -189 217 -193 -7 -4 -100 -29 -207 -55 -151 -37 -198 -46 -211 -37
-62 38 -449 363 -438 367 7 2 101 27 208 54 107 27 196 50 198 50 2 1 106 -83
233 -186z m-1239 -314 c123 -100 222 -184 221 -188 -2 -3 -95 -29 -208 -57
l-205 -52 -229 186 c-127 103 -228 188 -226 190 6 6 410 108 417 105 3 -2 107
-85 230 -184z m-1198 -434 c113 -151 206 -279 206 -285 0 -6 -93 -134 -206
-285 l-206 -275 -179 0 -179 0 0 560 0 560 179 0 179 0 206 -275z m1176 -605
l-180 -240 -220 0 -220 0 180 240 180 240 220 0 220 0 -180 -240z m1280 0
l-180 -240 -220 0 -220 0 180 240 180 240 220 0 220 0 -180 -240z m980 -30 l0
-210 -160 0 -160 0 157 210 c87 116 159 210 160 210 2 0 3 -94 3 -210z"/>
<path d="M720 3600 l0 -80 80 0 80 0 0 80 0 80 -80 0 -80 0 0 -80z"/>
<path d="M720 2960 l0 -80 80 0 80 0 0 80 0 80 -80 0 -80 0 0 -80z"/>
</g>
</svg>
